<svg width="40" height="491" viewBox="0 0 40 491" fill="none" xmlns="http://www.w3.org/2000/svg">
<circle cx="20" cy="20" r="16.5" fill="white" stroke="#313246" stroke-width="7"/>
<circle cx="20" cy="168" r="16.5" fill="white" stroke="#313246" stroke-width="7"/>
<circle cx="20" cy="327" r="16.5" fill="white" stroke="#7A7A7A" stroke-width="7"/>
<circle cx="20" cy="471" r="16.5" fill="white" stroke="#7A7A7A" stroke-width="7"/>
<rect x="20" y="47" width="2" height="10" fill="#C4C4C4"/>
<rect x="20" y="61" width="2" height="10" fill="#C4C4C4"/>
<rect x="20" y="75" width="2" height="10" fill="#C4C4C4"/>
<rect x="20" y="89" width="2" height="10" fill="#C4C4C4"/>
<rect x="20" y="103" width="2" height="10" fill="#C4C4C4"/>
<rect x="20" y="117" width="2" height="10" fill="#C4C4C4"/>
<rect x="20" y="131" width="2" height="10" fill="#C4C4C4"/>
<rect x="20" y="352" width="2" height="10" fill="#C4C4C4"/>
<rect x="20" y="366" width="2" height="10" fill="#C4C4C4"/>
<rect x="20" y="380" width="2" height="10" fill="#C4C4C4"/>
<rect x="20" y="394" width="2" height="10" fill="#C4C4C4"/>
<rect x="20" y="408" width="2" height="10" fill="#C4C4C4"/>
<rect x="20" y="422" width="2" height="10" fill="#C4C4C4"/>
<rect x="20" y="436" width="2" height="10" fill="#C4C4C4"/>
<rect x="20" y="194" width="2" height="10" fill="#C4C4C4"/>
<rect x="20" y="208" width="2" height="10" fill="#C4C4C4"/>
<rect x="20" y="222" width="2" height="10" fill="#C4C4C4"/>
<rect x="20" y="236" width="2" height="10" fill="#C4C4C4"/>
<rect x="20" y="250" width="2" height="10" fill="#C4C4C4"/>
<rect x="20" y="264" width="2" height="10" fill="#C4C4C4"/>
<rect x="20" y="278" width="2" height="10" fill="#C4C4C4"/>
<rect x="20" y="292" width="2" height="10" fill="#C4C4C4"/>
</svg>
