<svg width="32" height="23" viewBox="0 0 32 23" fill="none" xmlns="http://www.w3.org/2000/svg">
<path d="M31.5642 10.4011L22.0415 0.455121C21.4605 -0.151707 20.5182 -0.151707 19.9372 0.455121C19.3561 1.06207 19.3561 2.04598 19.9372 2.65293L26.9198 9.94593H1.48792C0.666229 9.94593 0 10.6418 0 11.5C0 12.3581 0.666229 13.054 1.48792 13.054H26.9198L19.9375 20.347C19.3563 20.954 19.3563 21.9379 19.9375 22.5448C20.2279 22.8481 20.6088 23 20.9896 23C21.3704 23 21.7512 22.8481 22.0417 22.5448L31.5642 12.5989C32.1453 11.9919 32.1453 11.008 31.5642 10.4011Z" fill="#FF0013"/>
</svg>
