<svg width="8" height="93" viewBox="0 0 8 93" fill="none" xmlns="http://www.w3.org/2000/svg">
<rect x="3.41492" y="3.83472" width="1.43702" height="1.4039" fill="#C4C4C4"/>
<rect x="3.41504" y="8.04565" width="1.43702" height="2.8078" fill="#C4C4C4"/>
<rect x="3.41504" y="13.6609" width="1.43702" height="2.8078" fill="#C4C4C4"/>
<rect x="3.41504" y="19.2756" width="1.43702" height="2.8078" fill="#C4C4C4"/>
<rect x="3.41504" y="24.8906" width="1.43702" height="2.8078" fill="#C4C4C4"/>
<rect x="3.41504" y="30.5051" width="1.43702" height="2.8078" fill="#C4C4C4"/>
<rect x="3.41504" y="36.1204" width="1.43702" height="2.8078" fill="#C4C4C4"/>
<rect x="3.41504" y="41.7351" width="1.43702" height="2.8078" fill="#C4C4C4"/>
<rect x="3.41504" y="47.3501" width="1.43702" height="2.8078" fill="#C4C4C4"/>
<rect x="3.41504" y="52.9651" width="1.43702" height="2.8078" fill="#C4C4C4"/>
<rect x="3.41504" y="58.5798" width="1.43702" height="2.8078" fill="#C4C4C4"/>
<rect x="3.41504" y="64.1948" width="1.43702" height="2.8078" fill="#C4C4C4"/>
<rect x="3.41504" y="69.8098" width="1.43702" height="2.8078" fill="#C4C4C4"/>
<rect x="3.41504" y="75.4243" width="1.43702" height="2.8078" fill="#C4C4C4"/>
<rect x="3.41504" y="81.0393" width="1.43702" height="2.8078" fill="#C4C4C4"/>
<circle cx="3.98308" cy="4.39873" r="3.98296" fill="#1D317D"/>
<circle cx="3.98296" cy="88.0408" r="3.98296" fill="#D2395D"/>
</svg>
