<svg width="15" height="18" viewBox="0 0 15 18" fill="none" xmlns="http://www.w3.org/2000/svg">
<path d="M8.11544 0.961914C3.45547 0.962617 0.978516 3.9273 0.978516 7.15996C0.978516 8.65883 1.82211 10.5291 3.17286 11.122C3.55818 11.2943 3.50718 11.084 3.83867 9.82501C3.86488 9.72021 3.85142 9.62947 3.76642 9.5317C1.83557 7.314 3.3896 2.75479 7.83991 2.75479C14.2806 2.75479 13.0771 11.6045 8.96045 11.6045C7.8994 11.6045 7.10893 10.7774 7.35896 9.75397C7.66212 8.53504 8.25568 7.22467 8.25568 6.34617C8.25568 4.13198 4.93371 4.46045 4.93371 7.39418C4.93371 8.30082 5.2567 8.91274 5.2567 8.91274C5.2567 8.91274 4.18786 13.2005 3.98954 14.0016C3.6538 15.3577 4.03487 17.5529 4.06816 17.7421C4.0887 17.8462 4.20628 17.8792 4.27215 17.7934C4.37769 17.6563 5.66965 15.8261 6.03159 14.5031C6.16334 14.0213 6.70378 12.0659 6.70378 12.0659C7.06006 12.7046 8.08711 13.2391 9.18144 13.2391C12.4368 13.2391 14.7898 10.3975 14.7898 6.87158C14.7785 3.49121 11.8652 0.961914 8.11544 0.961914V0.961914Z" fill="#6D6D6D"/>
</svg>
