<svg width="19" height="13" viewBox="0 0 19 13" fill="none" xmlns="http://www.w3.org/2000/svg">
<path d="M17.96 2.64465C17.7566 1.89347 17.1605 1.30133 16.4046 1.09906C15.0236 0.723633 9.49948 0.723633 9.49948 0.723633C9.49948 0.723633 3.97559 0.723633 2.5946 1.08483C1.8532 1.28688 1.24257 1.89358 1.03921 2.64465C0.675781 4.01665 0.675781 6.862 0.675781 6.862C0.675781 6.862 0.675781 9.72169 1.03921 11.0793C1.24279 11.8304 1.83866 12.4226 2.5947 12.6248C3.99014 13.0004 9.4997 13.0004 9.4997 13.0004C9.4997 13.0004 15.0236 13.0004 16.4046 12.6392C17.1606 12.437 17.7566 11.8449 17.9602 11.0938C18.3235 9.72169 18.3235 6.87645 18.3235 6.87645C18.3235 6.87645 18.338 4.01665 17.96 2.64465ZM7.74073 9.49063V4.23336L12.3343 6.862L7.74073 9.49063Z" fill="#6D6D6D"/>
</svg>
