<svg width="66" height="42" viewBox="0 0 66 42" fill="none" xmlns="http://www.w3.org/2000/svg">
<path d="M61.3799 17.699L59.6707 10.8624C60.138 10.7632 60.4886 10.3486 60.4886 9.85194V8.74966C60.4886 6.35638 58.5415 4.40938 56.1483 4.40938H48.3634V2.13572C48.3634 0.958033 47.4054 0 46.2277 0H6.54484C5.36715 0 4.40912 0.958033 4.40912 2.13572V20.8749C4.40912 21.4455 4.87176 21.9083 5.44256 21.9083C6.01323 21.9083 6.476 21.4457 6.476 20.8749V2.13572C6.476 2.0977 6.50681 2.06689 6.54484 2.06689H46.2276C46.2656 2.06689 46.2964 2.0977 46.2964 2.13572V20.8751C46.2964 21.4458 46.759 21.9086 47.3298 21.9086C47.9005 21.9086 48.3633 21.4459 48.3633 20.8751V19.7036H60.5538C60.5549 19.7036 60.5556 19.7039 60.5565 19.7039C60.5576 19.7039 60.5585 19.7037 60.5594 19.7037C62.0595 19.7048 63.3332 20.6894 63.7707 22.0461H60.5573C59.9866 22.0461 59.5239 22.5088 59.5239 23.0795V25.2841C59.5239 27.0696 60.9764 28.5221 62.7619 28.5221H63.9331V33.069H61.231C60.3433 30.506 57.9069 28.6598 55.0458 28.6598C52.1847 28.6598 49.7481 30.506 48.8606 33.069H48.363V25.284C48.363 24.7133 47.9004 24.2505 47.3296 24.2505C46.7589 24.2505 46.2961 24.7132 46.2961 25.284V33.0688H24.8554C23.9677 30.5057 21.5313 28.6595 18.6702 28.6595C15.8091 28.6595 13.3725 30.5057 12.485 33.0688H6.54484C6.50681 33.0688 6.476 33.038 6.476 32.9999V30.7264H10.9541C11.5248 30.7264 11.9875 30.2638 11.9875 29.693C11.9875 29.1222 11.5249 28.6595 10.9541 28.6595H1.03344C0.462774 28.6595 0 29.1222 0 29.693C0 30.2638 0.462645 30.7264 1.03344 30.7264H4.40925V32.9999C4.40925 34.1776 5.36728 35.1357 6.54497 35.1357H12.1271C12.1269 35.1586 12.1253 35.1814 12.1253 35.2045C12.1253 38.8134 15.0614 41.7493 18.6702 41.7493C22.2789 41.7493 25.215 38.8134 25.215 35.2045C25.215 35.1813 25.2135 35.1586 25.2132 35.1357H48.5027C48.5025 35.1586 48.5009 35.1814 48.5009 35.2045C48.5009 38.8134 51.437 41.7493 55.0458 41.7493C58.6545 41.7493 61.5906 38.8134 61.5906 35.2045C61.5906 35.1813 61.5891 35.1586 61.5888 35.1357H64.9666C65.5372 35.1357 66 34.673 66 34.1022V23.0793C66.0001 20.3578 63.9922 18.0967 61.3799 17.699ZM48.3634 6.47613H56.1483C57.4019 6.47613 58.4218 7.49604 58.4218 8.74966V8.81849H48.3634V6.47613ZM48.3634 17.6369V10.8853H57.5461L59.234 17.6369H48.3634ZM18.6702 39.6828C16.201 39.6828 14.1921 37.6741 14.1921 35.2048C14.1921 32.7354 16.201 30.7267 18.6702 30.7267C21.1394 30.7267 23.1483 32.7354 23.1483 35.2048C23.1483 37.6741 21.1394 39.6828 18.6702 39.6828ZM55.046 39.6828C52.5768 39.6828 50.568 37.6741 50.568 35.2048C50.568 32.7354 52.5768 30.7267 55.046 30.7267C57.5152 30.7267 59.5241 32.7354 59.5241 35.2048C59.5241 37.6741 57.5152 39.6828 55.046 39.6828ZM63.9334 26.4552H62.7621C62.1163 26.4552 61.5909 25.9298 61.5909 25.284V24.1127H63.9332V26.4552H63.9334Z" fill="#313246"/>
</svg>
