<svg width="40" height="44" viewBox="0 0 40 44" fill="none" xmlns="http://www.w3.org/2000/svg">
<path d="M31.3311 21.5614H34.3934C35.0858 21.5614 35.649 20.9981 35.649 20.3058V17.2435C35.649 16.5511 35.0858 15.9879 34.3934 15.9879H31.3311C30.6388 15.9879 30.0755 16.5511 30.0755 17.2435V20.3058C30.0755 20.9981 30.6388 21.5614 31.3311 21.5614ZM31.3617 17.2741H34.3628V20.2752H31.3617V17.2741ZM31.3311 29.7074H34.3934C35.0858 29.7074 35.649 29.1441 35.649 28.4518V25.3894C35.649 24.6971 35.0858 24.1338 34.3934 24.1338H31.3311C30.6388 24.1338 30.0755 24.6971 30.0755 25.3894V28.4518C30.0755 29.1441 30.6388 29.7074 31.3311 29.7074ZM31.3617 25.42H34.3628V28.4212H31.3617V25.42ZM22.5921 21.5614H25.6545C26.3468 21.5614 26.9101 20.9981 26.9101 20.3058V17.2435C26.9101 16.5511 26.3468 15.9879 25.6545 15.9879H22.5921C21.8998 15.9879 21.3365 16.5511 21.3365 17.2435V20.3058C21.3365 20.9981 21.8998 21.5614 22.5921 21.5614ZM22.6227 17.2741H25.6238V20.2752H22.6227V17.2741ZM8.17649 31.8979H5.11412C4.4218 31.8979 3.85853 32.4611 3.85853 33.1535V36.2158C3.85853 36.9081 4.4218 37.4714 5.11412 37.4714H8.17649C8.86881 37.4714 9.43208 36.9081 9.43208 36.2158V33.1535C9.43208 32.4611 8.86881 31.8979 8.17649 31.8979ZM8.14587 36.1852H5.14473V33.1841H8.14587V36.1852ZM8.17649 15.9879H5.11412C4.4218 15.9879 3.85853 16.5511 3.85853 17.2435V20.3058C3.85853 20.9981 4.4218 21.5614 5.11412 21.5614H8.17649C8.86881 21.5614 9.43208 20.9981 9.43208 20.3058V17.2435C9.43208 16.551 8.86881 15.9879 8.17649 15.9879ZM8.14587 20.2752H5.14473V17.2741H8.14587V20.2752ZM22.5921 29.5164H25.6545C26.3468 29.5164 26.9101 28.9531 26.9101 28.2608V25.1985C26.9101 24.5061 26.3468 23.9429 25.6545 23.9429H22.5921C21.8998 23.9429 21.3365 24.5061 21.3365 25.1985V28.2608C21.3365 28.9531 21.8998 29.5164 22.5921 29.5164ZM22.6227 25.2291H25.6238V28.2302H22.6227V25.2291ZM36.2878 2.93889H33.5382V1.95563C33.5382 0.877277 32.6609 0 31.5826 0H31.2873C30.209 0 29.3317 0.877277 29.3317 1.95563V2.93889H10.1758V1.95563C10.1758 0.877277 9.29857 0 8.22022 0H7.92491C6.84655 0 5.96927 0.877277 5.96927 1.95563V2.93889H3.2198C1.44441 2.93889 0 4.3833 0 6.15869V40.6869C0 42.46 1.44244 43.9024 3.21551 43.9024H36.2922C38.0653 43.9024 39.5077 42.46 39.5077 40.6869V6.15869C39.5076 4.3833 38.0632 2.93889 36.2878 2.93889ZM30.6179 1.95563C30.6179 1.58649 30.9182 1.2862 31.2873 1.2862H31.5827C31.9518 1.2862 32.2521 1.58649 32.2521 1.95563V2.93889H30.6179V1.95563ZM7.25556 1.95563C7.25556 1.58649 7.55585 1.2862 7.92499 1.2862H8.2203C8.58944 1.2862 8.88973 1.58649 8.88973 1.95563V2.93889H7.25565V1.95563H7.25556ZM38.2214 40.6869C38.2214 41.7508 37.356 42.6162 36.2921 42.6162H3.21543C2.15156 42.6162 1.28612 41.7508 1.28612 40.6869V40.6829C1.82495 41.0889 2.49472 41.33 3.2198 41.33H29.294C30.154 41.33 30.9626 40.9951 31.5707 40.3869L38.2214 33.7362V40.6869ZM30.9145 39.2242C30.9649 39.0161 30.9924 38.799 30.9924 38.5757V34.2828C30.9924 33.4734 31.651 32.8148 32.4605 32.8148H36.7533C36.9767 32.8148 37.1937 32.7873 37.4018 32.7369L30.9145 39.2242ZM38.2214 12.1292H10.819C10.4638 12.1292 10.1758 12.4172 10.1758 12.7724C10.1758 13.1275 10.4638 13.4155 10.819 13.4155H38.2214V30.0605C38.2214 30.87 37.5628 31.5286 36.7533 31.5286H32.4605C30.9418 31.5286 29.7062 32.7643 29.7062 34.2829V38.5758C29.7062 39.3853 29.0476 40.0439 28.2381 40.0439H3.2198C2.15362 40.0439 1.2862 39.1765 1.2862 38.1102V13.4155H8.24654C8.60171 13.4155 8.88964 13.1275 8.88964 12.7724C8.88964 12.4172 8.60171 12.1292 8.24654 12.1292H1.28612V6.15869C1.28612 5.09251 2.15353 4.2251 3.21971 4.2251H5.96927V6.11599C5.96927 7.19434 6.84655 8.07162 7.92491 8.07162C8.28007 8.07162 8.56801 7.78368 8.56801 7.42852C8.56801 7.07335 8.28007 6.78541 7.92491 6.78541C7.55576 6.78541 7.25548 6.48513 7.25548 6.11599V4.2251H29.3317V6.11599C29.3317 7.19434 30.209 8.07162 31.2873 8.07162C31.6425 8.07162 31.9304 7.78368 31.9304 7.42852C31.9304 7.07335 31.6425 6.78541 31.2873 6.78541C30.9182 6.78541 30.6179 6.48513 30.6179 6.11599V4.2251H36.2879C37.354 4.2251 38.2214 5.09251 38.2214 6.15869V12.1292ZM8.17649 23.9429H5.11412C4.4218 23.9429 3.85853 24.5061 3.85853 25.1985V28.2608C3.85853 28.9531 4.4218 29.5164 5.11412 29.5164H8.17649C8.86881 29.5164 9.43208 28.9531 9.43208 28.2608V25.1985C9.43208 24.5061 8.86881 23.9429 8.17649 23.9429ZM8.14587 28.2302H5.14473V25.2291H8.14587V28.2302ZM13.8531 21.5614H16.9155C17.6078 21.5614 18.1711 20.9981 18.1711 20.3058V17.2435C18.1711 16.5511 17.6078 15.9879 16.9155 15.9879H13.8531C13.1608 15.9879 12.5975 16.5511 12.5975 17.2435V20.3058C12.5975 20.9981 13.1608 21.5614 13.8531 21.5614ZM13.8837 17.2741H16.8849V20.2752H13.8837V17.2741ZM22.6219 36.1852C22.606 35.8442 22.3245 35.5727 21.9795 35.5727C21.6244 35.5727 21.3364 35.8607 21.3364 36.2158C21.3364 36.9081 21.8997 37.4714 22.592 37.4714H25.6544C26.3467 37.4714 26.91 36.9081 26.91 36.2158V33.1535C26.91 32.4611 26.3467 31.8979 25.6544 31.8979H22.592C21.8997 31.8979 21.3364 32.4611 21.3364 33.1535V34.0367C21.3364 34.3918 21.6244 34.6798 21.9795 34.6798C22.3347 34.6798 22.6226 34.3918 22.6226 34.0367V33.1841H25.6238V36.1852H22.6219ZM13.8531 29.5164H16.9155C17.6078 29.5164 18.1711 28.9531 18.1711 28.2608V25.1985C18.1711 24.5061 17.6078 23.9429 16.9155 23.9429H13.8531C13.1608 23.9429 12.5975 24.5061 12.5975 25.1985V28.2608C12.5975 28.9531 13.1608 29.5164 13.8531 29.5164ZM13.8837 25.2291H16.8849V28.2302H13.8837V25.2291ZM13.8531 37.4714H16.9155C17.6078 37.4714 18.1711 36.9081 18.1711 36.2158V33.1535C18.1711 32.4611 17.6078 31.8979 16.9155 31.8979H13.8531C13.1608 31.8979 12.5975 32.4611 12.5975 33.1535V36.2158C12.5975 36.9081 13.1608 37.4714 13.8531 37.4714ZM13.8837 33.1841H16.8849V36.1852H13.8837V33.1841Z" fill="#575757"/>
</svg>
