<svg width="48" height="48" viewBox="0 0 48 48" fill="none" xmlns="http://www.w3.org/2000/svg">
<path d="M45.6774 41.8064H45.535C45.6217 41.5634 45.6774 41.3048 45.6774 41.0323V31.7419C45.6774 30.4614 44.6354 29.4194 43.3548 29.4194H38.5672C38.6539 29.1763 38.7097 28.9177 38.7097 28.6452V19.3548C38.7097 18.0743 37.6676 17.0323 36.3871 17.0323H30.1246L25.2774 7.74194H26.3226V0H21.6774V7.74194H22.6978L17.6493 17.0323H11.6129C10.3324 17.0323 9.29032 18.0743 9.29032 19.3548V28.6452C9.29032 28.9177 9.34606 29.1763 9.43277 29.4194H4.64516C3.36465 29.4194 2.32258 30.4614 2.32258 31.7419V41.0323C2.32258 41.3048 2.37832 41.5634 2.46503 41.8064H2.32258C1.04206 41.8064 0 42.8485 0 44.129V45.6774C0 46.9579 1.04206 48 2.32258 48H45.6774C46.9579 48 48 46.9579 48 45.6774V44.129C48 42.8485 46.9579 41.8064 45.6774 41.8064ZM44.129 31.7419V41.0323C44.129 41.4596 43.7822 41.8064 43.3548 41.8064H43.0498L39.8183 35.6129H41.0323V30.9677H43.3548C43.7822 30.9677 44.129 31.3146 44.129 31.7419ZM17.8065 41.0323V31.7419C17.8065 31.3146 18.1533 30.9677 18.5806 30.9677H20.9032V35.6129H27.0968V30.9677H29.4194C29.8467 30.9677 30.1935 31.3146 30.1935 31.7419V41.0323C30.1935 41.4596 29.8467 41.8064 29.4194 41.8064H18.5806C18.1533 41.8064 17.8065 41.4596 17.8065 41.0323ZM29.4194 19.0289L30.8013 21.6774H29.4194V19.0289ZM31.6095 23.2258L34.841 29.4194H32.5161H29.4194H25.5484C25.121 29.4194 24.7742 29.0725 24.7742 28.6452V19.3548C24.7742 18.9283 25.121 18.5806 25.5484 18.5806H27.871V23.2258H31.6095ZM39.0108 34.0645L37.3951 30.9677H39.4839V34.0645H39.0108ZM25.5484 30.9677V34.0645H22.4516V30.9677H25.5484ZM31.7419 41.0323V31.7419C31.7419 31.3146 32.0888 30.9677 32.5161 30.9677H35.6485L41.3032 41.8064H32.5161C32.0888 41.8064 31.7419 41.4596 31.7419 41.0323ZM36.3871 18.5806C36.8144 18.5806 37.1613 18.9283 37.1613 19.3548V28.6452C37.1613 29.0083 36.9058 29.2994 36.5683 29.383L30.9321 18.5806H36.3871ZM23.2258 1.54839H24.7742V6.19355H23.2258V1.54839ZM23.9861 8.61523L28.3781 17.0323H25.5484C24.9515 17.0323 24.4119 17.2653 24 17.6361C23.5881 17.2645 23.0485 17.0323 22.4516 17.0323H19.4114L23.9861 8.61523ZM15.4839 18.5806H18.5806V21.6774H15.4839V18.5806ZM10.8387 28.6452V19.3548C10.8387 18.9283 11.1855 18.5806 11.6129 18.5806H13.9355V23.2258H20.129V18.5806H22.4516C22.879 18.5806 23.2258 18.9283 23.2258 19.3548V28.6452C23.2258 29.0725 22.879 29.4194 22.4516 29.4194H18.5806H15.4839H11.6129C11.1855 29.4194 10.8387 29.0725 10.8387 28.6452ZM8.51613 30.9677H11.6129V34.0645H8.51613V30.9677ZM3.87097 41.0323V31.7419C3.87097 31.3146 4.21781 30.9677 4.64516 30.9677H6.96774V35.6129H13.1613V30.9677H15.4839C15.9112 30.9677 16.2581 31.3146 16.2581 31.7419V41.0323C16.2581 41.4596 15.9112 41.8064 15.4839 41.8064H4.64516C4.21781 41.8064 3.87097 41.4596 3.87097 41.0323ZM1.54839 45.6774V44.129C1.54839 43.7017 1.89523 43.3548 2.32258 43.3548H4.64516H15.4839H18.5806H29.4194H32.5161H41.8064V46.4516H2.32258C1.89523 46.4516 1.54839 46.1048 1.54839 45.6774ZM46.4516 45.6774C46.4516 46.1048 46.1048 46.4516 45.6774 46.4516H43.3548V43.3548H45.6774C46.1048 43.3548 46.4516 43.7017 46.4516 44.129V45.6774Z" fill="#313246"/>
</svg>
