<svg width="54" height="54" viewBox="0 0 54 54" fill="none" xmlns="http://www.w3.org/2000/svg">
<path d="M29.6998 9.90017V4.50011C29.6998 4.26141 29.605 4.03249 29.4362 3.8637C29.2675 3.69492 29.0385 3.6001 28.7998 3.6001H8.99962C8.76092 3.6001 8.532 3.69492 8.36322 3.8637C8.19443 4.03249 8.09961 4.26141 8.09961 4.50011V9.90017C8.09961 10.1389 8.19443 10.3678 8.36322 10.5366C8.532 10.7054 8.76092 10.8002 8.99962 10.8002H28.7998C29.0385 10.8002 29.2675 10.7054 29.4362 10.5366C29.605 10.3678 29.6998 10.1389 29.6998 9.90017ZM27.8998 9.00016H9.89963V5.40012H27.8998V9.00016Z" fill="white"/>
<path d="M4.5 14.4003V25.2004C4.5 25.4391 4.59482 25.668 4.76361 25.8368C4.93239 26.0056 5.16131 26.1004 5.40001 26.1004H16.2001C16.4388 26.1004 16.6677 26.0056 16.8365 25.8368C17.0053 25.668 17.1001 25.4391 17.1001 25.2004V20.0181L15.3001 21.8181V24.3004H6.30002V15.3003H14.1823L15.9823 13.5002H5.40001C5.16131 13.5002 4.93239 13.5951 4.76361 13.7639C4.59482 13.9326 4.5 14.1616 4.5 14.4003Z" fill="white"/>
<path d="M18.2634 13.7639L11.6996 20.3277L9.63589 18.264L8.36328 19.5366L11.0633 22.2366C11.2321 22.4053 11.461 22.5001 11.6996 22.5001C11.9383 22.5001 12.1671 22.4053 12.3359 22.2366L19.536 15.0365L18.2634 13.7639Z" fill="white"/>
<path d="M4.5 40.5004C4.5 40.7391 4.59482 40.968 4.76361 41.1368C4.93239 41.3056 5.16131 41.4004 5.40001 41.4004H16.2001C16.4388 41.4004 16.6677 41.3056 16.8365 41.1368C17.0053 40.968 17.1001 40.7391 17.1001 40.5004V35.3182L15.3001 37.1182V39.6004H6.30002V30.6003H14.1823L15.9823 28.8003H5.40001C5.16131 28.8003 4.93239 28.8951 4.76361 29.0639C4.59482 29.2327 4.5 29.4616 4.5 29.7003V40.5004Z" fill="white"/>
<path d="M9.63589 33.564L8.36328 34.8366L11.0633 37.5367C11.2321 37.7054 11.461 37.8002 11.6996 37.8002C11.9383 37.8002 12.1671 37.7054 12.3359 37.5367L19.536 30.3366L18.2634 29.064L11.6996 35.6277L9.63589 33.564Z" fill="white"/>
<path d="M21.5996 19.8003H33.2997V21.6003H21.5996V19.8003Z" fill="white"/>
<path d="M21.5996 15.3003H33.2997V17.1003H21.5996V15.3003Z" fill="white"/>
<path d="M21.5996 30.6003H26.9997V32.4004H21.5996V30.6003Z" fill="white"/>
<path d="M21.5996 35.1003H26.9997V36.9004H21.5996V35.1003Z" fill="white"/>
<path d="M1.80002 52.2006V1.80002H36.0004V21.0206C36.6076 20.8082 37.2076 20.5763 37.8004 20.3249V0.90001C37.8004 0.661312 37.7056 0.432391 37.5368 0.263607C37.368 0.0948222 37.1391 0 36.9004 0H0.90001C0.661312 0 0.432391 0.0948222 0.263607 0.263607C0.0948222 0.432391 0 0.661312 0 0.90001V53.1006C0 53.3393 0.0948222 53.5682 0.263607 53.737C0.432391 53.9058 0.661312 54.0006 0.90001 54.0006H36.9004C36.9952 53.9969 37.0888 53.9781 37.1776 53.9448C36.3281 53.4196 35.5156 52.8368 34.7458 52.2006H1.80002Z" fill="white"/>
<path d="M53.1992 24.3057C49.2191 23.8742 45.3581 22.6862 41.8239 20.8056C41.6937 20.7362 41.5484 20.7 41.4009 20.7C41.2534 20.7 41.1081 20.7362 40.9779 20.8056C37.4437 22.6862 33.5828 23.8742 29.6027 24.3057C29.3823 24.3299 29.1786 24.4345 29.0306 24.5996C28.8826 24.7647 28.8008 24.9786 28.8008 25.2003V35.8609C28.8256 39.7475 30.0033 43.5393 32.1846 46.7561C34.366 49.973 37.4529 52.4701 41.0544 53.9313C41.1642 53.9771 41.282 54.0007 41.4009 54.0007C41.5199 54.0007 41.6376 53.9771 41.7474 53.9313C45.349 52.4701 48.4359 49.973 50.6172 46.7561C52.7986 43.5393 53.9762 39.7475 54.0011 35.8609V25.2003C54.0011 24.9786 53.9192 24.7647 53.7712 24.5996C53.6232 24.4345 53.4195 24.3299 53.1992 24.3057ZM52.201 35.8609C52.177 39.3279 51.1425 42.7126 49.2243 45.6007C47.306 48.4888 44.5873 50.7548 41.4009 52.1214C38.2145 50.7548 35.4958 48.4888 33.5776 45.6007C31.6593 42.7126 30.6248 39.3279 30.6008 35.8609V25.9968C34.3678 25.4965 38.0209 24.3531 41.4009 22.6164C44.7809 24.3532 48.434 25.4966 52.201 25.9968V35.8609Z" fill="white"/>
<path d="M33.9367 35.3642L32.6641 36.6368L38.0641 42.0368C38.2329 42.2056 38.4618 42.3004 38.7004 42.3004C38.9391 42.3004 39.168 42.2056 39.3367 42.0368L50.1369 31.2367L48.8642 29.9641L38.7004 40.1279L33.9367 35.3642Z" fill="white"/>
<path d="M20.7012 47.7004H27.0012V49.5005H20.7012V47.7004Z" fill="white"/>
<path d="M12.5996 44.1006H26.9998V45.9006H12.5996V44.1006Z" fill="white"/>
</svg>
