<svg width="18" height="18" viewBox="0 0 18 18" fill="none" xmlns="http://www.w3.org/2000/svg">
<path d="M17.281 5.32816C17.2414 4.43123 17.0963 3.8146 16.8885 3.28029C16.6741 2.71312 16.3443 2.20534 15.9122 1.78321C15.49 1.35452 14.9788 1.02141 14.418 0.810414C13.8805 0.602638 13.267 0.457594 12.3699 0.418048C11.4661 0.375153 11.1792 0.365234 8.8869 0.365234C6.59461 0.365234 6.30769 0.375153 5.40724 0.414699C4.51014 0.454245 3.89339 0.599417 3.3591 0.807065C2.79169 1.02141 2.28381 1.35117 1.86161 1.78321C1.43284 2.20534 1.09979 2.71647 0.888624 3.27707C0.680808 3.8146 0.535736 4.42789 0.496183 5.32481C0.45328 6.22844 0.443359 6.51531 0.443359 8.80716C0.443359 11.099 0.45328 11.3859 0.492833 12.2862C0.532387 13.1831 0.677587 13.7997 0.885403 14.334C1.09979 14.9012 1.43284 15.409 1.86161 15.8311C2.28381 16.2598 2.79504 16.5929 3.35575 16.8039C3.89339 17.0117 4.50679 17.1567 5.40401 17.1963C6.30434 17.2359 6.59139 17.2457 8.88368 17.2457C11.176 17.2457 11.4629 17.2359 12.3633 17.1963C13.2604 17.1567 13.8772 17.0117 14.4115 16.8039C15.5462 16.3653 16.4433 15.4684 16.8819 14.334C17.0896 13.7965 17.2348 13.1831 17.2744 12.2862C17.3139 11.3859 17.3239 11.099 17.3239 8.80716C17.3239 6.51531 17.3205 6.22844 17.281 5.32816ZM15.7605 12.2202C15.7242 13.0446 15.5857 13.4898 15.4703 13.7866C15.1866 14.522 14.6028 15.1056 13.8673 15.3893C13.5704 15.5047 13.1219 15.6432 12.3006 15.6794C11.4101 15.719 11.143 15.7288 8.89025 15.7288C6.63751 15.7288 6.36708 15.719 5.47977 15.6794C4.65521 15.6432 4.20994 15.5047 3.9131 15.3893C3.54707 15.254 3.21389 15.0397 2.94346 14.7594C2.66311 14.4856 2.44873 14.1559 2.31345 13.7899C2.19801 13.4931 2.05951 13.0446 2.0233 12.2236C1.98362 11.3332 1.97383 11.066 1.97383 8.81373C1.97383 6.56142 1.98362 6.29105 2.0233 5.40403C2.05951 4.57963 2.19801 4.13445 2.31345 3.83766C2.44873 3.47157 2.66311 3.13859 2.94681 2.86808C3.22047 2.58778 3.55029 2.37344 3.91645 2.23831C4.21329 2.1229 4.66191 1.98442 5.48312 1.9481C6.37365 1.90855 6.64086 1.89863 8.89347 1.89863C11.1496 1.89863 11.4166 1.90855 12.3039 1.9481C13.1285 1.98442 13.5738 2.1229 13.8706 2.23831C14.2366 2.37344 14.5698 2.58778 14.8402 2.86808C15.1206 3.14181 15.335 3.47157 15.4703 3.83766C15.5857 4.13445 15.7242 4.58285 15.7605 5.40403C15.8001 6.29439 15.81 6.56142 15.81 8.81373C15.81 11.066 15.8001 11.3298 15.7605 12.2202Z" fill="#6D6D6D"/>
<path d="M8.88391 4.51514C6.5159 4.51514 4.5946 6.4363 4.5946 8.80445C4.5946 11.1726 6.5159 13.0938 8.88391 13.0938C11.2521 13.0938 13.1732 11.1726 13.1732 8.80445C13.1732 6.4363 11.2521 4.51514 8.88391 4.51514ZM8.88391 11.5868C7.34767 11.5868 6.10155 10.3408 6.10155 8.80445C6.10155 7.26807 7.34767 6.02208 8.88391 6.02208C10.4203 6.02208 11.6663 7.26807 11.6663 8.80445C11.6663 10.3408 10.4203 11.5868 8.88391 11.5868Z" fill="#6D6D6D"/>
<path d="M14.2796 4.377C14.2796 4.91187 13.8459 5.34555 13.311 5.34555C12.7761 5.34555 12.3425 4.91187 12.3425 4.377C12.3425 3.84201 12.7761 3.40845 13.311 3.40845C13.8459 3.40845 14.2796 3.84201 14.2796 4.377Z" fill="#6D6D6D"/>
</svg>
