<svg width="20" height="11" viewBox="0 0 20 11" fill="none" xmlns="http://www.w3.org/2000/svg">
<path d="M10.0721 10.3846C12.9515 10.3846 11.9248 8.86292 12.147 8.42538C12.1437 8.09861 12.1404 7.78431 12.1537 7.59323C12.3361 7.63615 12.7665 7.81823 13.6555 8.53961C15.0281 9.69577 15.3789 10.3846 16.4877 10.3846H18.5286C19.1755 10.3846 19.5122 10.161 19.6805 9.97338C19.8431 9.792 20.0023 9.47354 19.8282 8.97785C19.3729 7.78431 16.7174 5.72331 16.5524 5.50592C16.5772 5.46577 16.617 5.41246 16.6378 5.38477H16.6361C17.1602 4.80669 19.1606 2.30469 19.455 1.30362C19.4558 1.30223 19.4566 1.30015 19.4566 1.29808C19.6159 0.841154 19.4699 0.544846 19.319 0.377308C19.0917 0.126692 18.7301 0 18.2417 0H16.2007C15.5174 0 14.999 0.287308 14.737 0.811384C14.2983 1.74254 13.0659 3.65746 12.142 4.33523C12.1138 3.375 12.1329 2.64185 12.1478 2.097C12.1777 1.03431 12.2739 0 10.9528 0H7.745C6.91734 0 6.12534 0.754615 6.98286 1.65046C7.73256 2.43554 7.25238 2.87308 7.4141 5.05108C6.78382 4.48685 5.66258 2.96308 4.86975 1.01562C4.6475 0.488769 4.31079 0.000692257 3.36288 0.000692257H1.32193C0.494273 0.000692257 0 0.377308 0 1.008C0 2.42446 3.75598 10.3846 10.0721 10.3846ZM3.36288 1.03915C3.54285 1.03915 3.56109 1.03915 3.69461 1.35554C4.50651 3.35146 6.3277 6.30485 7.65792 6.30485C8.65725 6.30485 8.65725 5.44985 8.65725 5.12792L8.65642 2.565C8.60168 1.71692 8.23181 1.29462 7.98882 1.03846L10.8981 1.04123C10.8997 1.053 10.8815 3.87623 10.9064 4.56023C10.9064 5.53154 11.8302 6.08815 13.2724 4.86969C14.7942 3.43592 15.8466 1.29254 15.8889 1.20531C15.9511 1.08069 16.005 1.03846 16.2007 1.03846H18.2417H18.25C18.2491 1.04054 18.2491 1.04262 18.2483 1.04469C18.0617 1.77162 16.2198 4.08808 15.6036 4.80738C15.5937 4.81846 15.5845 4.83023 15.5754 4.842C15.3042 5.21169 15.0836 5.62015 15.6127 6.19477H15.6136C15.6617 6.24323 15.7869 6.35677 15.9693 6.51462C16.5366 7.00338 18.4822 8.67461 18.6547 9.33923C18.5402 9.35446 18.4158 9.34338 16.4877 9.34685C16.0772 9.34685 15.7562 8.83454 14.5313 7.803C13.43 6.90854 12.7151 6.543 12.0641 6.543C10.8002 6.543 10.8923 7.39938 10.9039 8.43508C10.908 9.558 10.8997 9.20285 10.9088 9.27346C10.835 9.29769 10.6236 9.34615 10.0721 9.34615C4.81004 9.34615 1.3833 2.37392 1.25144 1.04123C1.29705 1.03777 1.92485 1.03985 3.36288 1.03915Z" fill="#838383"/>
</svg>
