<svg width="16" height="16" viewBox="0 0 16 16" fill="none" xmlns="http://www.w3.org/2000/svg">
<path fill-rule="evenodd" clip-rule="evenodd" d="M13.3074 2.26371C11.8431 0.804706 9.89569 0.000855665 7.82104 0C3.54602 0 0.0667763 3.4625 0.0650567 7.7182C0.0644835 9.07862 0.421579 10.4066 1.10033 11.5772L0 15.5769L4.11156 14.5035C5.24447 15.1186 6.5199 15.4427 7.81789 15.4431H7.82113C12.0957 15.4431 15.5753 11.9803 15.5769 7.72438C15.5778 5.66185 14.7718 3.72262 13.3074 2.26371ZM7.82104 14.1395H7.81836C6.66167 14.139 5.52724 13.8297 4.53735 13.2452L4.30205 13.1061L1.86219 13.7431L2.51342 11.3757L2.3601 11.133C1.71478 10.1115 1.37402 8.93087 1.3746 7.71868C1.37593 4.18145 4.26785 1.30365 7.82362 1.30365C9.54547 1.30423 11.1641 1.97241 12.3811 3.18507C13.5982 4.39774 14.2681 6.00963 14.2675 7.72391C14.2659 11.2614 11.3742 14.1395 7.82104 14.1395ZM11.357 9.33455C11.1633 9.23796 10.2105 8.77153 10.0328 8.70707C9.85528 8.6427 9.72593 8.61066 9.59687 8.80366C9.46761 8.99666 9.09628 9.43115 8.98317 9.55978C8.87006 9.68851 8.75715 9.70468 8.56331 9.60808C8.36948 9.51158 7.74509 9.30784 7.00482 8.65078C6.42877 8.13938 6.03986 7.5078 5.92675 7.3148C5.81383 7.12161 5.9258 7.0273 6.01177 6.9212C6.22156 6.66193 6.43163 6.39011 6.49621 6.26148C6.56089 6.13275 6.5285 6.02009 6.47997 5.92358C6.43163 5.82709 6.04406 4.87777 5.88262 4.49149C5.72518 4.11556 5.56555 4.16633 5.44652 4.16044C5.3336 4.15483 5.20434 4.15369 5.07509 4.15369C4.94593 4.15369 4.73596 4.20189 4.55827 4.39508C4.38068 4.58818 3.88009 5.0547 3.88009 6.00402C3.88009 6.95333 4.57451 7.87042 4.67138 7.99915C4.76825 8.12788 6.03795 10.0759 7.98191 10.9113C8.44428 11.1102 8.8052 11.2287 9.08673 11.3176C9.55101 11.4644 9.97335 11.4437 10.3073 11.394C10.6797 11.3386 11.4538 10.9274 11.6154 10.477C11.7769 10.0264 11.7769 9.64031 11.7284 9.55978C11.68 9.47935 11.5508 9.43115 11.357 9.33455Z" fill="#838383"/>
</svg>
