<svg width="22" height="22" viewBox="0 0 22 22" fill="none" xmlns="http://www.w3.org/2000/svg">
<path fill-rule="evenodd" clip-rule="evenodd" d="M4.8125 6.875C4.8125 6.69266 4.88493 6.51779 5.01386 6.38886C5.1428 6.25993 5.31766 6.1875 5.5 6.1875L17.875 6.1875C18.0573 6.1875 18.2322 6.25993 18.3611 6.38886C18.4901 6.51779 18.5625 6.69266 18.5625 6.875C18.5625 7.05734 18.4901 7.23221 18.3611 7.36114C18.2322 7.49007 18.0573 7.5625 17.875 7.5625L5.5 7.5625C5.31766 7.5625 5.1428 7.49007 5.01386 7.36114C4.88493 7.23221 4.8125 7.05734 4.8125 6.875Z" fill="#212121"/>
<path fill-rule="evenodd" clip-rule="evenodd" d="M3.63832 7.36174C3.57429 7.29788 3.5235 7.22201 3.48884 7.13849C3.45418 7.05496 3.43634 6.96542 3.43634 6.87499C3.43634 6.78456 3.45418 6.69502 3.48884 6.6115C3.5235 6.52797 3.57429 6.4521 3.63832 6.38824L7.76332 2.26324C7.82724 2.19932 7.90313 2.14861 7.98664 2.11402C8.07016 2.07943 8.15967 2.06162 8.25007 2.06162C8.34047 2.06162 8.42998 2.07943 8.5135 2.11402C8.59701 2.14861 8.6729 2.19932 8.73682 2.26324C8.80074 2.32716 8.85145 2.40305 8.88604 2.48656C8.92063 2.57008 8.93844 2.65959 8.93844 2.74999C8.93844 2.84039 8.92063 2.9299 8.88604 3.01342C8.85145 3.09694 8.80074 3.17282 8.73682 3.23674L5.09719 6.87499L8.73682 10.5132C8.80074 10.5772 8.85145 10.653 8.88604 10.7366C8.92063 10.8201 8.93844 10.9096 8.93844 11C8.93844 11.0904 8.92063 11.1799 8.88604 11.2634C8.85145 11.3469 8.80074 11.4228 8.73682 11.4867C8.6729 11.5507 8.59701 11.6014 8.5135 11.636C8.42998 11.6706 8.34047 11.6884 8.25007 11.6884C8.15967 11.6884 8.07016 11.6706 7.98664 11.636C7.90313 11.6014 7.82724 11.5507 7.76332 11.4867L3.63832 7.36174ZM13.2633 19.7367C13.1993 19.6729 13.1485 19.597 13.1138 19.5135C13.0792 19.43 13.0613 19.3404 13.0613 19.25C13.0613 19.1596 13.0792 19.07 13.1138 18.9865C13.1485 18.903 13.1993 18.8271 13.2633 18.7632L16.9029 15.125L13.2633 11.4867C13.1994 11.4228 13.1487 11.3469 13.1141 11.2634C13.0795 11.1799 13.0617 11.0904 13.0617 11C13.0617 10.9096 13.0795 10.8201 13.1141 10.7366C13.1487 10.653 13.1994 10.5772 13.2633 10.5132C13.3272 10.4493 13.4031 10.3986 13.4866 10.364C13.5702 10.3294 13.6597 10.3116 13.7501 10.3116C13.8405 10.3116 13.93 10.3294 14.0135 10.364C14.097 10.3986 14.1729 10.4493 14.2368 10.5132L18.3618 14.6382C18.4258 14.7021 18.4766 14.778 18.5113 14.8615C18.546 14.945 18.5638 15.0346 18.5638 15.125C18.5638 15.2154 18.546 15.305 18.5113 15.3885C18.4766 15.472 18.4258 15.5479 18.3618 15.6117L14.2368 19.7367C14.173 19.8008 14.0971 19.8516 14.0136 19.8862C13.93 19.9209 13.8405 19.9387 13.7501 19.9387C13.6596 19.9387 13.5701 19.9209 13.4866 19.8862C13.4031 19.8516 13.3272 19.8008 13.2633 19.7367Z" fill="#212121"/>
<path fill-rule="evenodd" clip-rule="evenodd" d="M3.4375 15.125C3.4375 14.9427 3.50993 14.7678 3.63886 14.6389C3.7678 14.5099 3.94266 14.4375 4.125 14.4375H16.5C16.6823 14.4375 16.8572 14.5099 16.9861 14.6389C17.1151 14.7678 17.1875 14.9427 17.1875 15.125C17.1875 15.3073 17.1151 15.4822 16.9861 15.6111C16.8572 15.7401 16.6823 15.8125 16.5 15.8125H4.125C3.94266 15.8125 3.7678 15.7401 3.63886 15.6111C3.50993 15.4822 3.4375 15.3073 3.4375 15.125Z" fill="#212121"/>
</svg>
