<svg width="15" height="18" viewBox="0 0 15 18" fill="none" xmlns="http://www.w3.org/2000/svg">
<path d="M7.71289 0C3.85307 0 0.712891 2.92437 0.712891 6.51889C0.712891 10.9798 6.9772 17.5287 7.24391 17.8053C7.49443 18.0651 7.93181 18.0647 8.18187 17.8053C8.44858 17.5287 14.7129 10.9798 14.7129 6.51889C14.7128 2.92437 11.5727 0 7.71289 0ZM7.71289 9.79873C5.77092 9.79873 4.19105 8.3274 4.19105 6.51889C4.19105 4.71038 5.77096 3.23909 7.71289 3.23909C9.65483 3.23909 11.2347 4.71042 11.2347 6.51893C11.2347 8.32744 9.65483 9.79873 7.71289 9.79873Z" fill="#C7C7C7"/>
</svg>
