<svg width="15" height="14" viewBox="0 0 15 14" fill="none" xmlns="http://www.w3.org/2000/svg">
<path d="M7.71289 0C3.85294 0 0.712891 3.14005 0.712891 7C0.712891 10.86 3.85294 14 7.71289 14C11.5728 14 14.7129 10.86 14.7129 7C14.7129 3.14005 11.5728 0 7.71289 0ZM11.042 10.6207C10.9282 10.7345 10.7789 10.7917 10.6296 10.7917C10.4803 10.7917 10.3308 10.7345 10.2172 10.6207L7.30049 7.7041C7.1908 7.59505 7.12959 7.44679 7.12959 7.2917V3.5C7.12959 3.17743 7.39085 2.9167 7.71289 2.9167C8.03493 2.9167 8.29619 3.17743 8.29619 3.5V7.0502L11.042 9.7959C11.27 10.024 11.27 10.3927 11.042 10.6207Z" fill="#C7C7C7"/>
</svg>
